<svg width="360" height="80" viewBox="0 0 360 80" fill="none" xmlns="http://www.w3.org/2000/svg">
  <defs>
    <linearGradient id="markGradient" x1="8" y1="8" x2="72" y2="72" gradientUnits="userSpaceOnUse">
      <stop stop-color="#38BDF8" />
      <stop offset="1" stop-color="#1D4ED8" />
    </linearGradient>
    <linearGradient id="sparkGradient" x1="16" y1="14" x2="54" y2="42" gradientUnits="userSpaceOnUse">
      <stop stop-color="#E0F2FE" />
      <stop offset="1" stop-color="#DBEAFE" />
    </linearGradient>
  </defs>
  <rect x="8" y="8" width="64" height="64" rx="20" fill="url(#markGradient)" />
  <path
    d="M40 17L56 24V37C56 49.4 48.1 60.3 40 63C31.9 60.3 24 49.4 24 37V24L40 17Z"
    fill="url(#sparkGradient)"
  />
  <rect x="34.8" y="34" width="10.4" height="12.8" rx="3.2" fill="#2563EB" />
  <path
    d="M36.4 34V31.4C36.4 29.3 38 27.6 40 27.6C42 27.6 43.6 29.3 43.6 31.4V34"
    stroke="#2563EB"
    stroke-width="2.4"
    stroke-linecap="round"
  />
  <path d="M20 28C25.8 22.2 31.7 22.4 37.3 26.1" stroke="white" stroke-opacity="0.45" stroke-width="2" stroke-linecap="round" />
  <text x="86" y="44" fill="white" font-size="37" font-family="Segoe UI, Arial, sans-serif" font-weight="700">LinkVault</text>
  <text x="88" y="62" fill="#BFDBFE" font-size="11" font-family="Segoe UI, Arial, sans-serif" letter-spacing="0.16em">
    SECURE EPHEMERAL CONTENT VIEWER
  </text>
</svg>
